<?xml version="1.0" encoding="UTF-8" standalone="no"?><!DOCTYPE svg PUBLIC "-//W3C//DTD SVG 1.1//EN" "http://www.w3.org/Graphics/SVG/1.1/DTD/svg11.dtd"><svg width="100%" height="100%" viewBox="0 0 2726 2843" version="1.1" xmlns="http://www.w3.org/2000/svg" xmlns:xlink="http://www.w3.org/1999/xlink" xml:space="preserve" xmlns:serif="http://www.serif.com/" style="fill-rule:evenodd;clip-rule:evenodd;stroke-linecap:round;stroke-linejoin:round;stroke-miterlimit:1.5;"><path d="M2583.33,2648.39c0,107 -578.291,193.75 -1291.67,193.75c-713.375,-0 -1291.67,-86.75 -1291.67,-193.75c-0,-75.75 289.875,-141.375 712.333,-173.209c174.209,-13.166 371.042,-20.541 579.334,-20.541c85.625,-0 169.291,1.25 250.208,3.625c593.625,17.5 1041.46,95.958 1041.46,190.125Z" style="fill:#3f3d56;fill-rule:nonzero;"/><ellipse cx="1125" cy="2627.56" rx="495.833" ry="60.417" style="fill-opacity:0.1;"/><ellipse cx="1122.92" cy="2171.31" rx="468.75" ry="500" style="fill:#46486b;"/><rect x="979.167" y="2467.14" width="291.667" height="266.667" style="fill:#5b5d81;"/><path d="M1652.08,2531.72l-16.666,91.667l108.333,16.666l70.833,-41.666l-4.166,-66.667l-158.334,0Z" style="fill:#575a89;fill-rule:nonzero;"/><path d="M1106.25,810.89c0,-0 -8.333,95.833 -29.167,100c-20.833,4.166 45.834,170.833 45.834,170.833l100,0l79.166,-20.833l-37.5,-91.667c0,0 -50,-66.667 -12.5,-120.833c37.5,-54.167 -145.833,-37.5 -145.833,-37.5Z" style="fill:#ffebe1;fill-rule:nonzero;"/><path d="M1106.25,810.89c0,-0 -8.333,95.833 -29.167,100c-20.833,4.166 45.834,170.833 45.834,170.833l100,0l79.166,-20.833l-37.5,-91.667c0,0 -50,-66.667 -12.5,-120.833c37.5,-54.167 -145.833,-37.5 -145.833,-37.5Z" style="fill-opacity:0.1;fill-rule:nonzero;"/><path d="M897.917,1544.22c-0,0 -108.334,208.333 -20.834,250c87.5,41.667 108.334,37.5 108.334,50c-0,12.5 -16.667,8.333 -8.334,29.167c8.334,20.833 -16.666,104.166 8.334,154.166c25,50 16.666,87.5 16.666,87.5c0,0 0,4.167 8.334,20.834c8.333,16.666 12.5,29.166 8.333,37.5c-4.167,8.333 -29.167,62.5 -4.167,75c25,12.5 154.167,20.833 166.667,-0c12.5,-20.834 -12.5,-33.334 0,-45.834c12.5,-12.5 20.833,-16.666 12.5,-25c-8.333,-8.333 -16.667,-112.5 -16.667,-112.5c0,0 20.834,-120.833 12.5,-137.5c-8.333,-16.666 -20.833,-33.333 -12.5,-45.833c8.334,-12.5 16.667,-8.333 20.834,-25c4.166,-16.667 12.5,-54.167 12.5,-54.167l45.833,-4.166l108.333,20.833c0,0 120.834,133.333 254.167,175c-0,0 37.5,37.5 50,37.5c12.5,0 12.5,0 8.333,8.333c-4.166,8.334 -16.666,8.334 -8.333,16.667c8.333,8.333 20.833,-4.167 12.5,8.333c-8.333,12.5 -16.667,12.5 -8.333,20.834c8.333,8.333 -4.167,54.166 -4.167,58.333c-0,4.167 -37.5,395.833 -25,404.167c12.5,8.333 187.5,33.333 200,-0c12.5,-33.334 -8.333,-75 -8.333,-75c-0,-0 62.5,-500 45.833,-533.334c-16.667,-33.333 -75,-183.333 -387.5,-279.166c-0,-0 -87.5,-16.667 -87.5,-29.167c-0,-12.5 -8.333,-91.667 -25,-95.833c-16.667,-4.167 -112.5,-8.334 -112.5,-8.334l-120.833,37.5l-166.667,-29.166l-83.333,8.333Z" style="fill:#2f2e41;fill-rule:nonzero;"/><path d="M1043.75,2244.22l-20.833,75c-0,0 -16.667,120.833 4.166,150c16.364,22.91 45.582,50.961 99.769,55.884c31.173,2.86 60.393,-16.502 69.911,-46.324c0.621,-1.739 1.01,-3.552 1.154,-5.393c-0,-8.334 -12.5,-108.334 -12.5,-108.334l-20.833,-104.166l-4.167,-29.167l-116.667,12.5Z" style="fill:#2f2e41;fill-rule:nonzero;"/><path d="M1652.08,2602.56c0,0 -20.833,-20.833 -25,0c-4.166,20.834 -20.833,108.334 8.334,112.5c29.166,4.167 308.333,45.834 337.5,29.167c29.166,-16.667 83.333,-41.667 50,-54.167c-33.334,-12.5 -129.167,-50 -129.167,-50c-0,0 -54.167,-70.833 -62.5,-75c-8.333,-4.166 -54.167,4.167 -75,20.834c-20.833,16.666 -104.167,16.666 -104.167,16.666Z" style="fill:#2f2e41;fill-rule:nonzero;"/><ellipse cx="1201.69" cy="767.672" rx="101.753" ry="129.167" style="fill:#efe3dd;"/><path d="M1193.75,1060.89l-50,-54.167l-55.423,-108.333c0,-0 -40.41,-12.5 -48.744,8.333c-8.333,20.833 -158.333,87.5 -158.333,87.5c-0,0 37.5,350 20.833,383.333c-16.666,33.334 -45.833,166.667 -20.833,179.167c25,12.5 141.667,0 179.167,16.667c37.5,16.666 145.833,16.666 175,-4.167c29.166,-20.833 37.5,-37.5 66.666,-25c24.831,10.642 82.878,-353.171 99.591,-461.587c2.867,-18.547 -5.082,-37.188 -20.451,-47.958c-37.386,-26.224 -104.72,-71.415 -116.64,-65.455c-16.666,8.333 -70.833,91.667 -70.833,91.667Z" style="fill:#46486b;fill-rule:nonzero;"/><path d="M1372.92,1044.22c19.992,4.998 34.852,22.001 37.127,42.482l33.706,303.351c-0,0 -83.333,179.167 -125,58.334c-41.667,-120.834 54.167,-404.167 54.167,-404.167Z" style="fill:#66698e;fill-rule:nonzero;"/><path d="M1364.58,1419.22l91.667,-25c0,0 16.667,116.667 33.333,116.667c16.667,-0 -58.333,66.666 -95.833,58.333c-37.5,-8.333 -91.667,-37.5 -95.833,-58.333c-4.167,-20.834 37.5,-108.334 37.5,-108.334l29.166,16.667Z" style="fill:#66698e;fill-rule:nonzero;"/><path d="M1118.83,773.788c8.783,-15.427 44.575,-19.382 51.43,-35.418c9.227,-21.582 2.986,-68.339 42.007,-77.95c14.685,-3.617 35.536,68.675 42.329,77.899c6.371,8.65 36.814,11.367 48.215,10.354c12.278,-1.091 30.316,-5.944 41.605,-1.945c12.511,4.432 -12.676,-4.126 -0,0c6.672,2.172 3.282,-29.889 7.13,-34.743c3.366,-5.101 -0.158,5.761 0,-0c1.749,-14.157 3.33,-29.14 -4.377,-41.971c-3.242,-4.35 2.384,4.688 -0,-0c-1.349,-4.378 -0.283,4.502 -0,-0c-0.071,-16.64 -11.653,-60.963 -22.165,-75.341c-11.665,-15.956 -26.972,-33.035 -49.012,-39.363c-26.536,-7.619 -46.269,-16.973 -69.365,-15.415c-38.181,2.575 -94.979,13.441 -125.059,32.349c-4.089,2.379 9.556,-12.038 -0,-0c-59.055,74.39 -35.389,73.69 -36.236,79.026c-6.504,21.097 12.777,-19.192 -0,-0c-6.146,8.136 -9.41,36.471 -13.222,45.468c-3.19,9.143 -2.974,19.562 3.703,27.42c5.437,6.397 14.128,9.807 20.956,15.037c6.767,5.183 9.932,15.15 17.428,19.075c6.543,3.426 14.38,1.007 21.053,4.639c8.568,4.661 13.489,7.144 23.58,10.879Z" style="fill:#2f2e41;fill-rule:nonzero;"/><path d="M1214.58,1123.39l12.5,-25c0,-0 183.334,54.166 220.834,104.166c-0,0 91.666,-58.333 141.666,-50l50,8.334l-154.166,137.5l-195.834,-16.667l-75,-158.333Z" style="fill:#f2f2f2;fill-rule:nonzero;"/><path d="M1206.25,1098.39l-170.833,237.5l245.833,120.833c0,0 22.982,12.5 40.658,0l163.509,-75l154.166,-220.833l-154.166,79.166c-0,0 -16.667,-33.333 -50,-16.666l-229.167,-125Z" style="fill:#295792;fill-rule:nonzero;"/><path d="M1468.75,1519.22l33.333,-87.5c0,0 75,-95.833 33.334,-141.667c-41.667,-45.833 -87.5,133.334 -87.5,133.334l20.833,95.833Z" style="fill:#ffebe1;fill-rule:nonzero;"/><path d="M1084.16,1505.26l72.734,-58.967c0,0 112.959,-45.271 99.911,-105.823c-13.048,-60.552 -142.586,71.438 -142.586,71.438l-30.059,93.352Z" style="fill:#ffebe1;fill-rule:nonzero;"/><path d="M904.167,1083.81l-4.167,0c0,0 -64.583,-77.083 -77.083,27.084c-12.5,104.166 -54.167,450 54.166,462.5c108.334,12.5 185.417,-52.084 185.417,-52.084c0,0 79.167,-120.833 50,-120.833c-14.112,0 -52.493,-6.338 -87.5,-4.167c-37.345,2.317 -70.901,12.837 -68.75,2.084c4.167,-20.834 64.583,-285.417 -52.083,-314.584Z" style="fill-opacity:0.1;fill-rule:nonzero;"/><path d="M897.917,1002.56l-16.667,-8.333c0,0 -66.667,12.5 -79.167,116.667c-12.5,104.166 -54.166,450 54.167,462.5c108.333,12.5 254.167,-16.667 254.167,-16.667c-0,0 29.166,-158.333 -0,-158.333c-29.167,-0 -179.167,20.833 -175,-0c4.166,-20.834 79.166,-366.667 -37.5,-395.834Z" style="fill:#66698e;fill-rule:nonzero;"/><path d="M1408.33,1471.31l45.946,-70.42l29.054,116.254l-75,33.333l0,-79.167Z" style="fill:#66698e;fill-rule:nonzero;"/><path d="M1174.08,746.497c15.428,-0.278 28.18,12.021 28.458,27.449c0.278,15.428 -12.021,28.179 -27.449,28.457c-15.428,0.279 -28.179,-12.021 -28.457,-27.448c-0.279,-15.428 12.021,-28.18 27.448,-28.458Z" style="fill:none;stroke:#000;stroke-width:4.17px;"/><path d="M1269.04,746.976c15.428,-0.278 28.18,12.021 28.458,27.449c0.278,15.428 -12.021,28.179 -27.449,28.458c-15.428,0.278 -28.179,-12.021 -28.457,-27.449c-0.279,-15.428 12.021,-28.179 27.448,-28.458Z" style="fill:none;stroke:#000;stroke-width:4.17px;"/><path d="M1201.06,766.953c-1.334,-0.156 7.311,0.086 8.988,-0.008c7.243,-0.409 14.619,0.103 21.923,0.191c1.628,0.02 9.534,-0.234 9.472,-0.249" style="fill:none;stroke:#000;stroke-width:4.17px;"/></svg>